<?xml version="1.0" encoding="utf-8"?>
<!-- Generator: Adobe Illustrator 19.0.0, SVG Export Plug-In . SVG Version: 6.00 Build 0)  -->
<svg version="1.1" id="Calque_1" xmlns="http://www.w3.org/2000/svg" xmlns:xlink="http://www.w3.org/1999/xlink" x="0px" y="0px"
	 viewBox="0 0 187.7 44.1" style="enable-background:new 0 0 187.7 44.1;" xml:space="preserve">
<style type="text/css">
	.st0{fill:#FFFFFF;}
</style>
<g>
	<g>
		<path class="st0" d="M1.2,20.9c0.8-2,1.9-3.8,3.3-5.2s3.1-2.6,5.1-3.3c2-0.8,4.2-1.2,6.7-1.2s4.7,0.4,6.7,1.2s3.7,1.9,5.1,3.3
			s2.5,3.2,3.3,5.2c0.8,2,1.2,4.3,1.2,6.8s-0.4,4.8-1.2,6.8s-1.9,3.8-3.3,5.2S25,42.2,23,43s-4.2,1.2-6.7,1.2s-4.7-0.4-6.7-1.2
			s-3.7-1.9-5.1-3.3c-1.4-1.4-2.5-3.2-3.3-5.2S0,30.2,0,27.7C0,25.2,0.4,22.9,1.2,20.9z M9,31.4c0.2,1.2,0.7,2.3,1.2,3.2
			c0.6,1,1.4,1.7,2.3,2.3c1,0.6,2.2,0.9,3.6,0.9c1.5,0,2.7-0.3,3.7-0.9c1-0.6,1.8-1.3,2.4-2.3s1-2,1.2-3.2s0.4-2.4,0.4-3.7
			c0-1.3-0.1-2.5-0.4-3.7c-0.2-1.2-0.7-2.3-1.2-3.2c-0.6-0.9-1.4-1.7-2.4-2.3c-1-0.6-2.2-0.9-3.7-0.9s-2.7,0.3-3.6,0.9
			c-1,0.6-1.8,1.3-2.3,2.3c-0.6,0.9-1,2-1.2,3.2s-0.4,2.4-0.4,3.7C8.6,29,8.7,30.2,9,31.4z"/>
		<path class="st0" d="M58.1,43.4V39h-0.2c-1.1,1.8-2.5,3.1-4.3,3.9c-1.7,0.8-3.5,1.2-5.3,1.2c-2.3,0-4.2-0.3-5.7-0.9
			c-1.5-0.6-2.6-1.5-3.5-2.6s-1.4-2.5-1.8-4.1c-0.3-1.6-0.5-3.4-0.5-5.3V12h8.6v17.7c0,2.6,0.4,4.5,1.2,5.8s2.2,1.9,4.3,1.9
			c2.3,0,4-0.7,5.1-2.1c1.1-1.4,1.6-3.7,1.6-6.9V12h8.6v31.4H58.1z"/>
		<path class="st0" d="M71.9,7.1V0h8.6v7.1H71.9z M80.5,12v31.4h-8.6V12H80.5z"/>
		<path class="st0" d="M128.8,43.4l-5.6-21.1h-0.1l-5.3,21.1h-8.9L98.9,12h9.1l5.8,21.3h0.1l5.2-21.3h8.4l5.3,21.3h0.1l5.8-21.3h8.9
			l-9.9,31.4H128.8z"/>
		<path class="st0" d="M150.3,7.1V0h8.6v7.1H150.3z M158.9,12v31.4h-8.6V12H158.9z"/>
		<path class="st0" d="M173.4,0v43.4h-8.6V0H173.4z"/>
		<path class="st0" d="M187.8,0v43.4h-8.6V0H187.8z"/>
	</g>
</g>
</svg>
